<svg width="24" height="24" viewBox="0 0 24 24" fill="none" xmlns="http://www.w3.org/2000/svg">
<path d="M5.54444 13.7753L6.24347 13.0602L6.24346 13.0602L5.54444 13.7753ZM12.9996 21.063L12.3006 21.7781C12.6892 22.158 13.3101 22.158 13.6987 21.7781L12.9996 21.063ZM20.4548 13.7753L21.1538 14.4904L20.4548 13.7753ZM13.0399 6.44828L13.7389 7.16338L13.7391 7.16321L13.0399 6.44828ZM12.9996 6.48763L12.3006 7.20272C12.6892 7.5826 13.31 7.5826 13.6986 7.20273L12.9996 6.48763ZM12.9584 6.44734L13.6574 5.73226V5.73225L12.9584 6.44734ZM5.50323 13.735L6.20225 13.0199L6.20209 13.0198L5.50323 13.735ZM4.84541 14.4904L12.3006 21.7781L13.6987 20.3479L6.24347 13.0602L4.84541 14.4904ZM13.6987 21.7781L21.1538 14.4904L19.7558 13.0602L12.3006 20.3479L13.6987 21.7781ZM21.1538 14.4904L21.1941 14.4511L19.796 13.0209L19.7558 13.0602L21.1538 14.4904ZM21.1941 14.4511C23.6561 12.0444 23.6563 8.13896 21.1939 5.73303L19.7962 7.16354C21.4554 8.78467 21.4556 11.3986 19.796 13.0209L21.1941 14.4511ZM21.1939 5.73303C18.7449 3.34012 14.7894 3.3385 12.3407 5.73335L13.7391 7.16321C15.4099 5.52913 18.1237 5.52937 19.7962 7.16354L21.1939 5.73303ZM12.3409 5.73318L12.3006 5.77254L13.6986 7.20273L13.7389 7.16338L12.3409 5.73318ZM13.6987 5.77255L13.6574 5.73226L12.2594 7.16243L12.3006 7.20272L13.6987 5.77255ZM13.6574 5.73225C11.2082 3.33799 7.25258 3.33776 4.80403 5.73242L6.20242 7.16227C7.8735 5.52799 10.5871 5.52776 12.2594 7.16244L13.6574 5.73225ZM4.80403 5.73242C2.34346 8.13882 2.34177 12.0442 4.80436 14.4503L6.20209 13.0198C4.54314 11.3989 4.54337 8.7848 6.20242 7.16227L4.80403 5.73242ZM4.8042 14.4501L4.84542 14.4904L6.24346 13.0602L6.20225 13.0199L4.8042 14.4501Z" fill="#9098B1"/>
</svg>
